<svg width="159" height="36" viewBox="0 0 159 36" fill="none" xmlns="http://www.w3.org/2000/svg">
<path d="M20.5 17.9994C20.3642 17.9994 20.226 17.9738 20.0952 17.9254L0.87648 10.8418C0.352219 10.6509 0 10.1099 0 9.4991C0 8.88828 0.352219 8.34733 0.87648 8.15571L20.0952 1.07212C20.358 0.975961 20.6433 0.975961 20.906 1.07212L40.1248 8.15571C40.6478 8.34871 41 8.88828 41 9.4991C41 10.1099 40.6478 10.6509 40.1235 10.8418L20.9048 17.9254C20.774 17.9738 20.6358 17.9994 20.5 17.9994ZM5.3327 9.4991L20.5 15.0892L35.6673 9.4991L20.5 3.90901L5.3327 9.4991Z" fill="#3758CC"/>
<path d="M20.5 34.9999C20.3642 34.9999 20.226 34.9743 20.0952 34.9259L0.87648 27.8423C0.352219 27.6514 0 27.1104 0 26.4996C0 25.8888 0.352219 25.3478 0.87648 25.1562L12.4077 20.906C13.0828 20.6556 13.8053 21.0596 14.0287 21.8019C14.2527 22.5441 13.8898 23.3473 13.2185 23.5942L5.3327 26.4996L20.5 32.0897L35.6673 26.4996L27.7877 23.5956C27.1177 23.3486 26.7536 22.5469 26.9782 21.8032C27.2022 21.0624 27.9222 20.6584 28.5985 20.9074L40.1248 25.1548C40.6478 25.3492 41 25.8888 41 26.4996C41 27.1104 40.6478 27.6514 40.1235 27.8423L20.9048 34.9259C20.774 34.9743 20.6358 34.9999 20.5 34.9999Z" fill="#3758CC"/>
<path d="M20.5 26.4997C20.3642 26.4997 20.226 26.4741 20.0952 26.4256L0.87648 19.342C0.352219 19.1511 0 18.6102 0 17.9993C0 17.3885 0.352219 16.8476 0.87648 16.656L12.4077 12.4058C13.0828 12.1554 13.8053 12.5594 14.0287 13.3016C14.2527 14.0439 13.8898 14.847 13.2185 15.094L5.3327 17.9993L20.5 23.5894L35.6673 17.9993L27.7877 15.0953C27.1177 14.8484 26.7536 14.0466 26.9782 13.303C27.2022 12.5621 27.9222 12.1581 28.5985 12.4072L40.1248 16.6546C40.6478 16.849 41 17.3885 41 17.9993C41 18.6102 40.6478 19.1511 40.1235 19.342L20.9048 26.4256C20.774 26.4741 20.6358 26.4997 20.5 26.4997Z" fill="#3758CC"/>
<path d="M64.5998 9.152V26H60.4958V9.152H64.5998ZM75.7339 12.464C77.3019 12.464 78.5499 12.976 79.4779 14C80.4219 15.008 80.8939 16.4 80.8939 18.176V26H76.8139V18.728C76.8139 17.832 76.5819 17.136 76.1179 16.64C75.6539 16.144 75.0299 15.896 74.2459 15.896C73.4619 15.896 72.8379 16.144 72.3739 16.64C71.9099 17.136 71.6779 17.832 71.6779 18.728V26H67.5739V12.608H71.6779V14.384C72.0939 13.792 72.6539 13.328 73.3579 12.992C74.0619 12.64 74.8539 12.464 75.7339 12.464ZM88.8338 12.416C89.7778 12.416 90.6018 12.608 91.3058 12.992C92.0258 13.376 92.5778 13.88 92.9618 14.504V12.608H97.0658V25.976C97.0658 27.208 96.8178 28.32 96.3218 29.312C95.8418 30.32 95.0978 31.12 94.0898 31.712C93.0978 32.304 91.8578 32.6 90.3698 32.6C88.3858 32.6 86.7778 32.128 85.5458 31.184C84.3138 30.256 83.6098 28.992 83.4338 27.392H87.4898C87.6178 27.904 87.9218 28.304 88.4018 28.592C88.8818 28.896 89.4738 29.048 90.1778 29.048C91.0258 29.048 91.6978 28.8 92.1938 28.304C92.7058 27.824 92.9618 27.048 92.9618 25.976V24.08C92.5618 24.704 92.0098 25.216 91.3058 25.616C90.6018 26 89.7778 26.192 88.8338 26.192C87.7298 26.192 86.7298 25.912 85.8338 25.352C84.9378 24.776 84.2258 23.968 83.6978 22.928C83.1858 21.872 82.9298 20.656 82.9298 19.28C82.9298 17.904 83.1858 16.696 83.6978 15.656C84.2258 14.616 84.9378 13.816 85.8338 13.256C86.7298 12.696 87.7298 12.416 88.8338 12.416ZM92.9618 19.304C92.9618 18.28 92.6738 17.472 92.0978 16.88C91.5378 16.288 90.8498 15.992 90.0338 15.992C89.2178 15.992 88.5218 16.288 87.9458 16.88C87.3858 17.456 87.1058 18.256 87.1058 19.28C87.1058 20.304 87.3858 21.12 87.9458 21.728C88.5218 22.32 89.2178 22.616 90.0338 22.616C90.8498 22.616 91.5378 22.32 92.0978 21.728C92.6738 21.136 92.9618 20.328 92.9618 19.304ZM106.347 9.152C108.123 9.152 109.675 9.504 111.003 10.208C112.331 10.912 113.355 11.904 114.075 13.184C114.811 14.448 115.179 15.912 115.179 17.576C115.179 19.224 114.811 20.688 114.075 21.968C113.355 23.248 112.323 24.24 110.979 24.944C109.651 25.648 108.107 26 106.347 26H100.035V9.152H106.347ZM106.083 22.448C107.635 22.448 108.843 22.024 109.707 21.176C110.571 20.328 111.003 19.128 111.003 17.576C111.003 16.024 110.571 14.816 109.707 13.952C108.843 13.088 107.635 12.656 106.083 12.656H104.139V22.448H106.083ZM130.096 19.088C130.096 19.472 130.072 19.872 130.024 20.288H120.736C120.8 21.12 121.064 21.76 121.528 22.208C122.008 22.64 122.592 22.856 123.28 22.856C124.304 22.856 125.016 22.424 125.416 21.56H129.784C129.56 22.44 129.152 23.232 128.56 23.936C127.984 24.64 127.256 25.192 126.376 25.592C125.496 25.992 124.512 26.192 123.424 26.192C122.112 26.192 120.944 25.912 119.92 25.352C118.896 24.792 118.096 23.992 117.52 22.952C116.944 21.912 116.656 20.696 116.656 19.304C116.656 17.912 116.936 16.696 117.496 15.656C118.072 14.616 118.872 13.816 119.896 13.256C120.92 12.696 122.096 12.416 123.424 12.416C124.72 12.416 125.872 12.688 126.88 13.232C127.888 13.776 128.672 14.552 129.232 15.56C129.808 16.568 130.096 17.744 130.096 19.088ZM125.896 18.008C125.896 17.304 125.656 16.744 125.176 16.328C124.696 15.912 124.096 15.704 123.376 15.704C122.688 15.704 122.104 15.904 121.624 16.304C121.16 16.704 120.872 17.272 120.76 18.008H125.896ZM137.709 26.192C136.541 26.192 135.501 25.992 134.589 25.592C133.677 25.192 132.957 24.648 132.429 23.96C131.901 23.256 131.605 22.472 131.541 21.608H135.597C135.645 22.072 135.861 22.448 136.245 22.736C136.629 23.024 137.101 23.168 137.661 23.168C138.173 23.168 138.565 23.072 138.837 22.88C139.125 22.672 139.269 22.408 139.269 22.088C139.269 21.704 139.069 21.424 138.669 21.248C138.269 21.056 137.621 20.848 136.725 20.624C135.765 20.4 134.965 20.168 134.325 19.928C133.685 19.672 133.133 19.28 132.669 18.752C132.205 18.208 131.973 17.48 131.973 16.568C131.973 15.8 132.181 15.104 132.597 14.48C133.029 13.84 133.653 13.336 134.469 12.968C135.301 12.6 136.285 12.416 137.421 12.416C139.101 12.416 140.421 12.832 141.381 13.664C142.357 14.496 142.917 15.6 143.061 16.976H139.269C139.205 16.512 138.997 16.144 138.645 15.872C138.309 15.6 137.861 15.464 137.301 15.464C136.821 15.464 136.453 15.56 136.197 15.752C135.941 15.928 135.813 16.176 135.813 16.496C135.813 16.88 136.013 17.168 136.413 17.36C136.829 17.552 137.469 17.744 138.333 17.936C139.325 18.192 140.133 18.448 140.757 18.704C141.381 18.944 141.925 19.344 142.389 19.904C142.869 20.448 143.117 21.184 143.133 22.112C143.133 22.896 142.909 23.6 142.461 24.224C142.029 24.832 141.397 25.312 140.565 25.664C139.749 26.016 138.797 26.192 137.709 26.192ZM153.828 26L149.748 20.384V26H145.644V8.24H149.748V18.056L153.804 12.608H158.868L153.3 19.328L158.916 26H153.828Z" fill="#3758CC"/>
</svg>
