<svg width="398" height="501" viewBox="0 0 398 501" fill="none" xmlns="http://www.w3.org/2000/svg">
<g filter="url(#filter0_d_5_2858)">
<rect x="130.05" y="0.325989" width="263.95" height="351.934" rx="19.0234" fill="white"/>
<rect x="151.451" y="74.0417" width="64.2041" height="7.13379" rx="2.37793" fill="#F6F7F8"/>
<rect x="151.451" y="140.624" width="64.2041" height="7.13379" rx="2.37793" fill="#F6F7F8"/>
<rect x="151.451" y="204.828" width="64.2041" height="7.13379" rx="2.37793" fill="#F6F7F8"/>
<rect x="151.451" y="271.41" width="64.2041" height="7.13379" rx="2.37793" fill="#F6F7F8"/>
<rect x="151.451" y="97.8213" width="130.786" height="16.6455" rx="2.37793" fill="#C2CFE0"/>
<rect x="151.451" y="162.025" width="171.211" height="16.6455" rx="2.37793" fill="#C2CFE0"/>
<rect x="151.451" y="230.985" width="92.7393" height="16.6455" rx="2.37793" fill="#C2CFE0"/>
<rect x="151.451" y="295.189" width="52.3145" height="16.6455" rx="2.37793" fill="#C2CFE0"/>
<path d="M154.595 26.9355C155.086 26.9355 155.545 26.833 155.973 26.628C156.4 26.4229 156.779 26.1288 157.109 25.7455L158.379 27.0024C157.934 27.5283 157.363 27.9472 156.668 28.2592C155.982 28.5712 155.273 28.7272 154.542 28.7272C153.838 28.7272 153.178 28.6024 152.563 28.3528C151.957 28.1032 151.431 27.7645 150.985 27.3366C150.54 26.9088 150.187 26.4007 149.929 25.8123C149.679 25.224 149.555 24.5911 149.555 23.9137C149.555 23.2362 149.684 22.6033 149.942 22.015C150.201 21.4177 150.553 20.9052 150.999 20.4773C151.444 20.0494 151.97 19.7107 152.576 19.4611C153.191 19.2115 153.847 19.0867 154.542 19.0867C155.291 19.0867 156.017 19.2472 156.721 19.5681C157.426 19.8801 157.996 20.3035 158.433 20.8383L157.123 22.1353C156.793 21.7253 156.405 21.4133 155.959 21.1993C155.514 20.9765 155.041 20.8651 154.542 20.8651C154.123 20.8651 153.726 20.9453 153.352 21.1058C152.986 21.2573 152.67 21.4712 152.403 21.7476C152.135 22.015 151.926 22.3359 151.774 22.7103C151.623 23.0757 151.547 23.4769 151.547 23.9137C151.547 24.3415 151.623 24.7427 151.774 25.117C151.935 25.4825 152.149 25.799 152.416 26.0664C152.692 26.3338 153.013 26.5477 153.379 26.7082C153.753 26.8597 154.159 26.9355 154.595 26.9355ZM161.599 28.7138C160.85 28.7138 160.239 28.5177 159.767 28.1255C159.295 27.7244 159.058 27.2074 159.058 26.5745C159.058 25.9149 159.312 25.3978 159.82 25.0235C160.329 24.6491 161.028 24.4619 161.92 24.4619C162.205 24.4619 162.49 24.4842 162.775 24.5287C163.061 24.5733 163.341 24.6402 163.618 24.7293V24.2346C163.618 23.8334 163.493 23.5304 163.243 23.3253C162.994 23.1203 162.628 23.0178 162.147 23.0178C161.853 23.0178 161.532 23.0668 161.184 23.1649C160.846 23.254 160.458 23.3966 160.021 23.5928L159.352 22.2423C159.896 21.9927 160.422 21.8055 160.93 21.6807C161.447 21.5559 161.955 21.4935 162.455 21.4935C163.39 21.4935 164.117 21.7208 164.634 22.1754C165.16 22.6211 165.423 23.254 165.423 24.0741V28.5935H163.618V28.1122C163.324 28.3172 163.012 28.4687 162.682 28.5668C162.361 28.6648 162 28.7138 161.599 28.7138ZM160.81 26.5344C160.81 26.8018 160.926 27.0157 161.158 27.1762C161.389 27.3277 161.697 27.4035 162.08 27.4035C162.383 27.4035 162.66 27.3678 162.909 27.2965C163.168 27.2163 163.404 27.1049 163.618 26.9622V25.9193C163.395 25.8302 163.159 25.7678 162.909 25.7321C162.668 25.6875 162.414 25.6653 162.147 25.6653C161.728 25.6653 161.398 25.7455 161.158 25.9059C160.926 26.0575 160.81 26.267 160.81 26.5344ZM166.221 27.7645L167.13 26.5477C167.54 26.8152 167.928 27.0157 168.293 27.1494C168.659 27.2742 169.024 27.3366 169.39 27.3366C169.8 27.3366 170.125 27.2698 170.366 27.1361C170.616 27.0024 170.74 26.8241 170.74 26.6012C170.74 26.4229 170.669 26.2803 170.526 26.1734C170.393 26.0664 170.174 25.9906 169.871 25.9461L168.534 25.7455C167.848 25.6385 167.322 25.4157 166.956 25.0769C166.6 24.7382 166.422 24.288 166.422 23.7265C166.422 23.0579 166.684 22.5231 167.21 22.1219C167.736 21.7208 168.441 21.5203 169.323 21.5203C169.831 21.5203 170.326 21.596 170.807 21.7476C171.289 21.8902 171.748 22.1041 172.184 22.3894L171.302 23.566C170.919 23.3432 170.553 23.1783 170.206 23.0713C169.858 22.9554 169.506 22.8975 169.149 22.8975C168.819 22.8975 168.552 22.9599 168.347 23.0847C168.151 23.2095 168.053 23.3744 168.053 23.5794C168.053 23.7666 168.124 23.9137 168.267 24.0206C168.418 24.1187 168.663 24.19 169.002 24.2346L170.339 24.4351C171.017 24.5332 171.538 24.756 171.904 25.1037C172.278 25.4513 172.465 25.8926 172.465 26.4274C172.465 26.7572 172.385 27.0648 172.225 27.35C172.073 27.6263 171.864 27.867 171.596 28.072C171.329 28.2771 171.008 28.4375 170.633 28.5534C170.259 28.6693 169.853 28.7272 169.417 28.7272C168.784 28.7272 168.191 28.647 167.638 28.4865C167.086 28.3172 166.613 28.0765 166.221 27.7645ZM173.122 25.117C173.122 24.609 173.215 24.1365 173.402 23.6997C173.599 23.254 173.861 22.8707 174.191 22.5498C174.53 22.22 174.927 21.9615 175.381 21.7743C175.836 21.5871 176.322 21.4935 176.839 21.4935C177.356 21.4935 177.842 21.5871 178.296 21.7743C178.751 21.9615 179.143 22.22 179.473 22.5498C179.812 22.8707 180.075 23.254 180.262 23.6997C180.458 24.1365 180.556 24.609 180.556 25.117C180.556 25.6251 180.458 26.102 180.262 26.5477C180.075 26.9845 179.812 27.3634 179.473 27.6843C179.143 28.0052 178.751 28.2592 178.296 28.4464C177.842 28.6336 177.356 28.7272 176.839 28.7272C176.322 28.7272 175.836 28.6336 175.381 28.4464C174.927 28.2592 174.53 28.0052 174.191 27.6843C173.861 27.3634 173.599 26.9845 173.402 26.5477C173.215 26.102 173.122 25.6251 173.122 25.117ZM176.839 27.1361C177.374 27.1361 177.828 26.94 178.203 26.5477C178.577 26.1555 178.764 25.6786 178.764 25.117C178.764 24.5466 178.577 24.0652 178.203 23.673C177.828 23.2808 177.374 23.0847 176.839 23.0847C176.304 23.0847 175.849 23.2808 175.475 23.673C175.101 24.0652 174.913 24.5466 174.913 25.117C174.913 25.6786 175.101 26.1555 175.475 26.5477C175.849 26.94 176.304 27.1361 176.839 27.1361ZM181.094 27.7645L182.003 26.5477C182.413 26.8152 182.801 27.0157 183.166 27.1494C183.532 27.2742 183.897 27.3366 184.262 27.3366C184.673 27.3366 184.998 27.2698 185.239 27.1361C185.488 27.0024 185.613 26.8241 185.613 26.6012C185.613 26.4229 185.542 26.2803 185.399 26.1734C185.265 26.0664 185.047 25.9906 184.744 25.9461L183.407 25.7455C182.72 25.6385 182.194 25.4157 181.829 25.0769C181.472 24.7382 181.294 24.288 181.294 23.7265C181.294 23.0579 181.557 22.5231 182.083 22.1219C182.609 21.7208 183.313 21.5203 184.196 21.5203C184.704 21.5203 185.198 21.596 185.68 21.7476C186.161 21.8902 186.62 22.1041 187.057 22.3894L186.175 23.566C185.791 23.3432 185.426 23.1783 185.078 23.0713C184.73 22.9554 184.378 22.8975 184.022 22.8975C183.692 22.8975 183.425 22.9599 183.22 23.0847C183.023 23.2095 182.925 23.3744 182.925 23.5794C182.925 23.7666 182.997 23.9137 183.139 24.0206C183.291 24.1187 183.536 24.19 183.875 24.2346L185.212 24.4351C185.889 24.5332 186.411 24.756 186.776 25.1037C187.151 25.4513 187.338 25.8926 187.338 26.4274C187.338 26.7572 187.258 27.0648 187.097 27.35C186.946 27.6263 186.736 27.867 186.469 28.072C186.201 28.2771 185.88 28.4375 185.506 28.5534C185.132 28.6693 184.726 28.7272 184.289 28.7272C183.656 28.7272 183.064 28.647 182.511 28.4865C181.958 28.3172 181.486 28.0765 181.094 27.7645Z" fill="#41475E" fill-opacity="0.71"/>
<path d="M351.796 109.443V102.785H355.049C355.386 102.785 355.693 102.836 355.972 102.937C356.257 103.039 356.502 103.181 356.704 103.365C356.907 103.543 357.066 103.758 357.18 104.012C357.294 104.266 357.351 104.545 357.351 104.849C357.351 105.268 357.231 105.642 356.99 105.972C356.755 106.301 356.441 106.545 356.048 106.704L357.522 109.443H355.982L354.678 106.894H353.176V109.443H351.796ZM354.926 103.974H353.176V105.762H354.926C355.237 105.762 355.484 105.68 355.668 105.515C355.858 105.35 355.953 105.134 355.953 104.868C355.953 104.602 355.858 104.386 355.668 104.221C355.484 104.056 355.237 103.974 354.926 103.974ZM360.107 110.157V109.263C359.644 109.225 359.206 109.117 358.794 108.939C358.382 108.762 358.021 108.527 357.71 108.235L358.385 107.313C358.626 107.547 358.896 107.741 359.194 107.893C359.492 108.039 359.796 108.137 360.107 108.188V106.647L359.584 106.542C358.969 106.428 358.525 106.238 358.252 105.972C357.986 105.705 357.853 105.325 357.853 104.83C357.853 104.259 358.052 103.806 358.452 103.47C358.858 103.134 359.409 102.953 360.107 102.928V102.224H360.735V102.956C361.115 102.994 361.496 103.08 361.876 103.213C362.263 103.34 362.618 103.505 362.941 103.708L362.39 104.706C362.098 104.529 361.813 104.386 361.534 104.278C361.255 104.171 360.988 104.095 360.735 104.05V105.563L361.239 105.648C361.898 105.775 362.377 105.972 362.675 106.238C362.973 106.498 363.122 106.862 363.122 107.332C363.122 107.896 362.907 108.353 362.475 108.701C362.051 109.05 361.47 109.24 360.735 109.272V110.157H360.107ZM360.05 105.477L360.107 105.486V104.003C359.79 104.009 359.536 104.079 359.346 104.212C359.156 104.345 359.061 104.516 359.061 104.725C359.061 104.96 359.127 105.128 359.26 105.23C359.394 105.331 359.657 105.413 360.05 105.477ZM360.773 106.713L360.735 106.704V108.226C361.077 108.2 361.35 108.118 361.553 107.978C361.762 107.839 361.867 107.661 361.867 107.446C361.867 107.224 361.794 107.065 361.648 106.97C361.502 106.869 361.21 106.783 360.773 106.713ZM366.171 102.785V109.443H364.868V104.107L363.565 104.64V103.508L365.344 102.785H366.171ZM369.687 109.548C369.301 109.548 368.942 109.5 368.612 109.405C368.289 109.304 368.01 109.167 367.775 108.996C367.541 108.825 367.357 108.619 367.224 108.378C367.097 108.137 367.034 107.871 367.034 107.579C367.034 107.237 367.138 106.926 367.347 106.647C367.563 106.368 367.842 106.159 368.184 106.019C367.905 105.861 367.68 105.654 367.509 105.401C367.338 105.147 367.252 104.865 367.252 104.554C367.252 104.288 367.313 104.041 367.433 103.812C367.56 103.584 367.731 103.388 367.947 103.223C368.162 103.051 368.419 102.918 368.717 102.823C369.022 102.728 369.345 102.68 369.687 102.68C370.03 102.68 370.35 102.728 370.648 102.823C370.952 102.918 371.212 103.051 371.428 103.223C371.65 103.388 371.821 103.584 371.942 103.812C372.068 104.041 372.132 104.288 372.132 104.554C372.132 104.865 372.046 105.15 371.875 105.41C371.704 105.664 371.479 105.867 371.2 106.019C371.542 106.159 371.818 106.368 372.027 106.647C372.243 106.926 372.351 107.237 372.351 107.579C372.351 107.871 372.284 108.137 372.151 108.378C372.024 108.619 371.843 108.825 371.609 108.996C371.374 109.167 371.092 109.304 370.762 109.405C370.439 109.5 370.08 109.548 369.687 109.548ZM369.687 105.534C370.017 105.534 370.293 105.448 370.515 105.277C370.743 105.106 370.857 104.894 370.857 104.64C370.857 104.386 370.746 104.174 370.524 104.003C370.302 103.825 370.023 103.736 369.687 103.736C369.358 103.736 369.082 103.825 368.86 104.003C368.638 104.174 368.527 104.386 368.527 104.64C368.527 104.894 368.638 105.106 368.86 105.277C369.088 105.448 369.364 105.534 369.687 105.534ZM369.687 108.483C370.08 108.483 370.404 108.391 370.658 108.207C370.918 108.023 371.047 107.788 371.047 107.503C371.047 107.224 370.918 106.992 370.658 106.809C370.404 106.618 370.08 106.523 369.687 106.523C369.301 106.523 368.977 106.618 368.717 106.809C368.463 106.992 368.337 107.224 368.337 107.503C368.337 107.788 368.463 108.023 368.717 108.207C368.977 108.391 369.301 108.483 369.687 108.483ZM373.016 109.443V108.53L375.641 106.181C375.939 105.908 376.151 105.67 376.278 105.467C376.405 105.258 376.469 105.043 376.469 104.821C376.469 104.529 376.354 104.288 376.126 104.098C375.898 103.907 375.612 103.812 375.27 103.812C374.953 103.812 374.655 103.876 374.376 104.003C374.103 104.129 373.805 104.339 373.482 104.63L372.749 103.755C373.136 103.407 373.545 103.143 373.976 102.966C374.408 102.788 374.852 102.699 375.308 102.699C375.663 102.699 375.99 102.75 376.288 102.852C376.592 102.947 376.849 103.083 377.058 103.261C377.274 103.438 377.439 103.654 377.553 103.907C377.673 104.161 377.734 104.437 377.734 104.735C377.734 105.115 377.638 105.467 377.448 105.791C377.258 106.114 376.928 106.485 376.459 106.904L374.832 108.349H377.819V109.443H373.016Z" fill="#41475E" fill-opacity="0.71"/>
<path d="M351.796 173.647V166.989H355.049C355.386 166.989 355.693 167.04 355.972 167.141C356.257 167.243 356.502 167.385 356.704 167.569C356.907 167.747 357.066 167.962 357.18 168.216C357.294 168.47 357.351 168.749 357.351 169.053C357.351 169.472 357.231 169.846 356.99 170.175C356.755 170.505 356.441 170.749 356.048 170.908L357.522 173.647H355.982L354.678 171.098H353.176V173.647H351.796ZM354.926 168.178H353.176V169.966H354.926C355.237 169.966 355.484 169.884 355.668 169.719C355.858 169.554 355.953 169.338 355.953 169.072C355.953 168.806 355.858 168.59 355.668 168.425C355.484 168.26 355.237 168.178 354.926 168.178ZM360.107 174.361V173.467C359.644 173.429 359.206 173.321 358.794 173.143C358.382 172.966 358.021 172.731 357.71 172.439L358.385 171.517C358.626 171.751 358.896 171.945 359.194 172.097C359.492 172.243 359.796 172.341 360.107 172.392V170.851L359.584 170.746C358.969 170.632 358.525 170.442 358.252 170.175C357.986 169.909 357.853 169.529 357.853 169.034C357.853 168.463 358.052 168.01 358.452 167.674C358.858 167.338 359.409 167.157 360.107 167.132V166.428H360.735V167.16C361.115 167.198 361.496 167.284 361.876 167.417C362.263 167.544 362.618 167.709 362.941 167.912L362.39 168.91C362.098 168.733 361.813 168.59 361.534 168.482C361.255 168.375 360.988 168.299 360.735 168.254V169.766L361.239 169.852C361.898 169.979 362.377 170.175 362.675 170.442C362.973 170.702 363.122 171.066 363.122 171.536C363.122 172.1 362.907 172.557 362.475 172.905C362.051 173.254 361.47 173.444 360.735 173.476V174.361H360.107ZM360.05 169.681L360.107 169.69V168.207C359.79 168.213 359.536 168.283 359.346 168.416C359.156 168.549 359.061 168.72 359.061 168.929C359.061 169.164 359.127 169.332 359.26 169.434C359.394 169.535 359.657 169.617 360.05 169.681ZM360.773 170.917L360.735 170.908V172.43C361.077 172.404 361.35 172.322 361.553 172.182C361.762 172.043 361.867 171.865 361.867 171.65C361.867 171.428 361.794 171.269 361.648 171.174C361.502 171.073 361.21 170.987 360.773 170.917ZM366.171 166.989V173.647H364.868V168.311L363.565 168.844V167.712L365.344 166.989H366.171ZM369.687 173.752C369.301 173.752 368.942 173.704 368.612 173.609C368.289 173.508 368.01 173.371 367.775 173.2C367.541 173.029 367.357 172.823 367.224 172.582C367.097 172.341 367.034 172.075 367.034 171.783C367.034 171.441 367.138 171.13 367.347 170.851C367.563 170.572 367.842 170.363 368.184 170.223C367.905 170.065 367.68 169.858 367.509 169.605C367.338 169.351 367.252 169.069 367.252 168.758C367.252 168.492 367.313 168.245 367.433 168.016C367.56 167.788 367.731 167.591 367.947 167.427C368.162 167.255 368.419 167.122 368.717 167.027C369.022 166.932 369.345 166.884 369.687 166.884C370.03 166.884 370.35 166.932 370.648 167.027C370.952 167.122 371.212 167.255 371.428 167.427C371.65 167.591 371.821 167.788 371.942 168.016C372.068 168.245 372.132 168.492 372.132 168.758C372.132 169.069 372.046 169.354 371.875 169.614C371.704 169.868 371.479 170.071 371.2 170.223C371.542 170.363 371.818 170.572 372.027 170.851C372.243 171.13 372.351 171.441 372.351 171.783C372.351 172.075 372.284 172.341 372.151 172.582C372.024 172.823 371.843 173.029 371.609 173.2C371.374 173.371 371.092 173.508 370.762 173.609C370.439 173.704 370.08 173.752 369.687 173.752ZM369.687 169.738C370.017 169.738 370.293 169.652 370.515 169.481C370.743 169.31 370.857 169.098 370.857 168.844C370.857 168.59 370.746 168.378 370.524 168.207C370.302 168.029 370.023 167.94 369.687 167.94C369.358 167.94 369.082 168.029 368.86 168.207C368.638 168.378 368.527 168.59 368.527 168.844C368.527 169.098 368.638 169.31 368.86 169.481C369.088 169.652 369.364 169.738 369.687 169.738ZM369.687 172.687C370.08 172.687 370.404 172.595 370.658 172.411C370.918 172.227 371.047 171.992 371.047 171.707C371.047 171.428 370.918 171.196 370.658 171.013C370.404 170.822 370.08 170.727 369.687 170.727C369.301 170.727 368.977 170.822 368.717 171.013C368.463 171.196 368.337 171.428 368.337 171.707C368.337 171.992 368.463 172.227 368.717 172.411C368.977 172.595 369.301 172.687 369.687 172.687ZM373.016 173.647V172.734L375.641 170.385C375.939 170.112 376.151 169.874 376.278 169.671C376.405 169.462 376.469 169.247 376.469 169.025C376.469 168.733 376.354 168.492 376.126 168.302C375.898 168.111 375.612 168.016 375.27 168.016C374.953 168.016 374.655 168.08 374.376 168.207C374.103 168.333 373.805 168.543 373.482 168.834L372.749 167.959C373.136 167.611 373.545 167.347 373.976 167.17C374.408 166.992 374.852 166.903 375.308 166.903C375.663 166.903 375.99 166.954 376.288 167.056C376.592 167.151 376.849 167.287 377.058 167.465C377.274 167.642 377.439 167.858 377.553 168.111C377.673 168.365 377.734 168.641 377.734 168.939C377.734 169.319 377.638 169.671 377.448 169.995C377.258 170.318 376.928 170.689 376.459 171.108L374.832 172.553H377.819V173.647H373.016Z" fill="#41475E" fill-opacity="0.71"/>
<path d="M351.796 242.607V235.949H355.049C355.386 235.949 355.693 236 355.972 236.101C356.257 236.203 356.502 236.345 356.704 236.529C356.907 236.707 357.066 236.922 357.18 237.176C357.294 237.43 357.351 237.709 357.351 238.013C357.351 238.432 357.231 238.806 356.99 239.136C356.755 239.465 356.441 239.709 356.048 239.868L357.522 242.607H355.982L354.678 240.058H353.176V242.607H351.796ZM354.926 237.138H353.176V238.926H354.926C355.237 238.926 355.484 238.844 355.668 238.679C355.858 238.514 355.953 238.298 355.953 238.032C355.953 237.766 355.858 237.55 355.668 237.385C355.484 237.22 355.237 237.138 354.926 237.138ZM360.107 243.321V242.427C359.644 242.389 359.206 242.281 358.794 242.103C358.382 241.926 358.021 241.691 357.71 241.399L358.385 240.477C358.626 240.711 358.896 240.905 359.194 241.057C359.492 241.203 359.796 241.301 360.107 241.352V239.811L359.584 239.706C358.969 239.592 358.525 239.402 358.252 239.136C357.986 238.869 357.853 238.489 357.853 237.994C357.853 237.423 358.052 236.97 358.452 236.634C358.858 236.298 359.409 236.117 360.107 236.092V235.388H360.735V236.12C361.115 236.158 361.496 236.244 361.876 236.377C362.263 236.504 362.618 236.669 362.941 236.872L362.39 237.87C362.098 237.693 361.813 237.55 361.534 237.442C361.255 237.335 360.988 237.259 360.735 237.214V238.727L361.239 238.812C361.898 238.939 362.377 239.136 362.675 239.402C362.973 239.662 363.122 240.026 363.122 240.496C363.122 241.06 362.907 241.517 362.475 241.865C362.051 242.214 361.47 242.404 360.735 242.436V243.321H360.107ZM360.05 238.641L360.107 238.65V237.167C359.79 237.173 359.536 237.243 359.346 237.376C359.156 237.509 359.061 237.68 359.061 237.889C359.061 238.124 359.127 238.292 359.26 238.394C359.394 238.495 359.657 238.578 360.05 238.641ZM360.773 239.877L360.735 239.868V241.39C361.077 241.364 361.35 241.282 361.553 241.142C361.762 241.003 361.867 240.825 361.867 240.61C361.867 240.388 361.794 240.229 361.648 240.134C361.502 240.033 361.21 239.947 360.773 239.877ZM366.171 235.949V242.607H364.868V237.271L363.565 237.804V236.672L365.344 235.949H366.171ZM369.687 242.712C369.301 242.712 368.942 242.664 368.612 242.569C368.289 242.468 368.01 242.331 367.775 242.16C367.541 241.989 367.357 241.783 367.224 241.542C367.097 241.301 367.034 241.035 367.034 240.743C367.034 240.401 367.138 240.09 367.347 239.811C367.563 239.532 367.842 239.323 368.184 239.183C367.905 239.025 367.68 238.818 367.509 238.565C367.338 238.311 367.252 238.029 367.252 237.718C367.252 237.452 367.313 237.205 367.433 236.976C367.56 236.748 367.731 236.552 367.947 236.387C368.162 236.215 368.419 236.082 368.717 235.987C369.022 235.892 369.345 235.844 369.687 235.844C370.03 235.844 370.35 235.892 370.648 235.987C370.952 236.082 371.212 236.215 371.428 236.387C371.65 236.552 371.821 236.748 371.942 236.976C372.068 237.205 372.132 237.452 372.132 237.718C372.132 238.029 372.046 238.314 371.875 238.574C371.704 238.828 371.479 239.031 371.2 239.183C371.542 239.323 371.818 239.532 372.027 239.811C372.243 240.09 372.351 240.401 372.351 240.743C372.351 241.035 372.284 241.301 372.151 241.542C372.024 241.783 371.843 241.989 371.609 242.16C371.374 242.331 371.092 242.468 370.762 242.569C370.439 242.664 370.08 242.712 369.687 242.712ZM369.687 238.698C370.017 238.698 370.293 238.612 370.515 238.441C370.743 238.27 370.857 238.058 370.857 237.804C370.857 237.55 370.746 237.338 370.524 237.167C370.302 236.989 370.023 236.9 369.687 236.9C369.358 236.9 369.082 236.989 368.86 237.167C368.638 237.338 368.527 237.55 368.527 237.804C368.527 238.058 368.638 238.27 368.86 238.441C369.088 238.612 369.364 238.698 369.687 238.698ZM369.687 241.647C370.08 241.647 370.404 241.555 370.658 241.371C370.918 241.187 371.047 240.952 371.047 240.667C371.047 240.388 370.918 240.156 370.658 239.973C370.404 239.782 370.08 239.687 369.687 239.687C369.301 239.687 368.977 239.782 368.717 239.973C368.463 240.156 368.337 240.388 368.337 240.667C368.337 240.952 368.463 241.187 368.717 241.371C368.977 241.555 369.301 241.647 369.687 241.647ZM373.016 242.607V241.694L375.641 239.345C375.939 239.072 376.151 238.834 376.278 238.631C376.405 238.422 376.469 238.207 376.469 237.985C376.469 237.693 376.354 237.452 376.126 237.262C375.898 237.071 375.612 236.976 375.27 236.976C374.953 236.976 374.655 237.04 374.376 237.167C374.103 237.293 373.805 237.503 373.482 237.794L372.749 236.919C373.136 236.571 373.545 236.307 373.976 236.13C374.408 235.952 374.852 235.863 375.308 235.863C375.663 235.863 375.99 235.914 376.288 236.016C376.592 236.111 376.849 236.247 377.058 236.425C377.274 236.602 377.439 236.818 377.553 237.071C377.673 237.325 377.734 237.601 377.734 237.899C377.734 238.279 377.638 238.631 377.448 238.955C377.258 239.278 376.928 239.649 376.459 240.068L374.832 241.513H377.819V242.607H373.016Z" fill="#41475E" fill-opacity="0.71"/>
<line x1="130.05" y1="44.9123" x2="394" y2="44.9123" stroke="#D9DAE1" stroke-width="1.18897"/>
</g>
<g filter="url(#filter1_d_5_2858)">
<rect x="3.99994" y="282.591" width="347.365" height="210.083" rx="16.6402" fill="white"/>
<path d="M83.0409 403.233C83.0409 400.935 84.9034 399.073 87.201 399.073H93.441C95.7386 399.073 97.6011 400.935 97.6011 403.233V448.994H83.0409V403.233Z" fill="#5B78FF"/>
<rect x="83.0409" y="463.554" width="31.2004" height="6.24009" rx="2.08003" fill="#F6F7F8"/>
<rect x="31.0404" y="386.593" width="20.8003" height="6.24009" rx="2.08003" fill="#F6F7F8"/>
<rect x="33.1204" y="328.352" width="56.1608" height="6.24009" rx="2.08003" fill="#F6F7F8"/>
<rect x="155.842" y="328.352" width="56.1608" height="6.24009" rx="2.08003" fill="#F6F7F8"/>
<rect x="268.164" y="328.352" width="56.1608" height="6.24009" rx="2.08003" fill="#F6F7F8"/>
<rect x="33.1204" y="336.672" width="24.9603" height="6.24009" rx="2.08003" fill="#F6F7F8"/>
<rect x="155.842" y="336.672" width="24.9603" height="6.24009" rx="2.08003" fill="#F6F7F8"/>
<rect x="268.164" y="336.672" width="24.9603" height="6.24009" rx="2.08003" fill="#F6F7F8"/>
<rect x="31.0404" y="405.313" width="20.8003" height="6.24009" rx="2.08003" fill="#F6F7F8"/>
<rect x="31.0404" y="426.113" width="20.8003" height="6.24009" rx="2.08003" fill="#F6F7F8"/>
<rect x="31.0404" y="444.833" width="20.8003" height="6.24009" rx="2.08003" fill="#F6F7F8"/>
<rect x="143.362" y="463.554" width="31.2004" height="6.24009" rx="2.08003" fill="#F6F7F8"/>
<rect x="209.923" y="463.554" width="31.2004" height="6.24009" rx="2.08003" fill="#F6F7F8"/>
<rect x="272.323" y="463.554" width="31.2004" height="6.24009" rx="2.08003" fill="#F6F7F8"/>
<path d="M143.362 415.713C143.362 413.415 145.224 411.553 147.522 411.553H153.762C156.06 411.553 157.922 413.415 157.922 415.713V448.993H143.362V415.713Z" fill="#5B78FF"/>
<path d="M205.763 396.993C205.763 394.695 207.625 392.833 209.923 392.833H216.163C218.46 392.833 220.323 394.695 220.323 396.993V448.993H205.763V396.993Z" fill="#5B78FF"/>
<path d="M268.164 405.313C268.164 403.015 270.026 401.153 272.324 401.153H278.564C280.861 401.153 282.724 403.015 282.724 405.313V448.994H268.164V405.313Z" fill="#5B78FF"/>
<path d="M103.841 417.793C103.841 415.496 105.704 413.633 108.001 413.633H114.242C116.539 413.633 118.402 415.496 118.402 417.793V448.994H103.841V417.793Z" fill="#C2CFE0"/>
<path d="M164.162 426.113C164.162 423.816 166.025 421.953 168.322 421.953H174.562C176.86 421.953 178.722 423.816 178.722 426.113V448.994H164.162V426.113Z" fill="#C2CFE0"/>
<path d="M226.563 426.113C226.563 423.816 228.426 421.953 230.723 421.953H236.963C239.261 421.953 241.123 423.816 241.123 426.113V448.994H226.563V426.113Z" fill="#C2CFE0"/>
<path d="M288.964 417.793C288.964 415.496 290.826 413.633 293.124 413.633H299.364C301.661 413.633 303.524 415.496 303.524 417.793V448.994H288.964V417.793Z" fill="#C2CFE0"/>
<path d="M36.0697 371.115L33.017 365.033V371.7H31.8708V363.513H33.5083L36.0814 368.741L38.6428 363.513H40.2802V371.7H39.1223V365.021L36.0697 371.115ZM41.5355 368.717C41.5355 368.288 41.6135 367.887 41.7694 367.513C41.9332 367.131 42.1554 366.803 42.4361 366.53C42.7168 366.249 43.0443 366.031 43.4185 365.875C43.8006 365.711 44.2061 365.63 44.6349 365.63C45.0638 365.63 45.4653 365.711 45.8396 365.875C46.2217 366.031 46.5491 366.249 46.822 366.53C47.1027 366.803 47.3211 367.131 47.477 367.513C47.6408 367.887 47.7226 368.288 47.7226 368.717C47.7226 369.154 47.6408 369.563 47.477 369.945C47.3211 370.32 47.1027 370.647 46.822 370.928C46.5491 371.201 46.2217 371.419 45.8396 371.583C45.4653 371.739 45.0638 371.817 44.6349 371.817C44.2061 371.817 43.8006 371.739 43.4185 371.583C43.0443 371.419 42.7168 371.201 42.4361 370.928C42.1554 370.647 41.9332 370.32 41.7694 369.945C41.6135 369.563 41.5355 369.154 41.5355 368.717ZM44.6349 370.787C45.1729 370.787 45.6291 370.589 46.0033 370.191C46.3854 369.785 46.5764 369.294 46.5764 368.717C46.5764 368.14 46.3854 367.653 46.0033 367.255C45.6291 366.858 45.1729 366.659 44.6349 366.659C44.0969 366.659 43.6369 366.858 43.2548 367.255C42.8727 367.653 42.6817 368.14 42.6817 368.717C42.6817 369.294 42.8688 369.785 43.2431 370.191C43.6252 370.589 44.0891 370.787 44.6349 370.787ZM48.8289 371.7V365.746H49.9985V366.343C50.2324 366.109 50.4975 365.934 50.7938 365.817C51.0979 365.692 51.4293 365.63 51.788 365.63C52.4663 365.63 53.0238 365.848 53.4605 366.285C53.8971 366.713 54.1154 367.271 54.1154 367.957V371.7H52.9459V368.156C52.9459 367.688 52.8094 367.322 52.5365 367.056C52.2714 366.784 51.9166 366.647 51.4722 366.647C51.1603 366.647 50.8757 366.713 50.6184 366.846C50.3689 366.978 50.1622 367.169 49.9985 367.419V371.7H48.8289ZM56.0084 370.226V366.729H54.7453V365.746H56.0084V364.226L57.1663 363.945V365.746H58.9207V366.729H57.1663V369.957C57.1663 370.261 57.2326 370.476 57.3652 370.6C57.5055 370.725 57.7316 370.787 58.0435 370.787C58.2073 370.787 58.3515 370.78 58.4763 370.764C58.6088 370.741 58.7492 370.702 58.8973 370.647V371.63C58.7414 371.684 58.5581 371.727 58.3476 371.758C58.1449 371.789 57.9578 371.805 57.7862 371.805C57.2092 371.805 56.7687 371.672 56.4646 371.407C56.1605 371.134 56.0084 370.741 56.0084 370.226ZM59.7824 371.7V363.513L60.952 363.255V366.343C61.1859 366.109 61.451 365.934 61.7473 365.817C62.0514 365.692 62.3828 365.63 62.7414 365.63C63.4198 365.63 63.9773 365.848 64.414 366.285C64.8506 366.713 65.0689 367.271 65.0689 367.957V371.7H63.8993V368.156C63.8993 367.688 63.7629 367.322 63.49 367.056C63.2249 366.784 62.8701 366.647 62.4257 366.647C62.1138 366.647 61.8292 366.713 61.5719 366.846C61.3223 366.978 61.1157 367.169 60.952 367.419V371.7H59.7824ZM67.588 363.255V371.7H66.4184V363.513L67.588 363.255ZM70.4509 372.261L70.6848 371.723L68.3105 365.746H69.5971L71.3398 370.296L73.2579 365.746H74.521L71.6438 372.413C71.3709 373.045 71.0591 373.497 70.7082 373.77C70.3573 374.051 69.909 374.191 69.3631 374.191C69.2384 374.191 69.1214 374.183 69.0123 374.168C68.9109 374.16 68.8212 374.144 68.7433 374.121V373.092C68.8212 373.107 68.8992 373.119 68.9772 373.127C69.063 373.134 69.1604 373.138 69.2696 373.138C69.5347 373.138 69.7647 373.064 69.9596 372.916C70.1624 372.776 70.3261 372.557 70.4509 372.261ZM81.8087 370.694C82.2765 370.694 82.7249 370.6 83.1537 370.413C83.5826 370.218 83.9451 369.945 84.2414 369.594L85.0484 370.413C84.6508 370.85 84.1596 371.197 83.5748 371.454C82.9978 371.704 82.3974 371.828 81.7736 371.828C81.1732 371.828 80.6079 371.719 80.0777 371.501C79.5553 371.283 79.103 370.986 78.721 370.612C78.3389 370.23 78.0348 369.782 77.8087 369.267C77.5904 368.745 77.4812 368.191 77.4812 367.606C77.4812 367.014 77.5904 366.46 77.8087 365.945C78.0348 365.431 78.3389 364.986 78.721 364.612C79.103 364.23 79.5553 363.93 80.0777 363.711C80.6079 363.493 81.1732 363.384 81.7736 363.384C82.413 363.384 83.0251 363.513 83.6098 363.77C84.2024 364.019 84.6898 364.362 85.0718 364.799L84.2531 365.641C83.9412 365.283 83.567 365.006 83.1303 364.811C82.6937 364.616 82.2414 364.518 81.7736 364.518C81.3447 364.518 80.9432 364.596 80.5689 364.752C80.1946 364.908 79.8711 365.127 79.5982 365.407C79.333 365.68 79.1225 366.008 78.9666 366.39C78.8106 366.764 78.7327 367.169 78.7327 367.606C78.7327 368.043 78.8106 368.452 78.9666 368.834C79.1225 369.208 79.3369 369.532 79.6098 369.805C79.8828 370.078 80.2063 370.296 80.5806 370.46C80.9627 370.616 81.372 370.694 81.8087 370.694ZM87.9926 371.805C87.3454 371.805 86.8191 371.637 86.4137 371.302C86.0082 370.967 85.8055 370.53 85.8055 369.992C85.8055 369.431 86.0199 368.99 86.4488 368.67C86.8776 368.343 87.4663 368.179 88.2148 368.179C88.5033 368.179 88.784 368.21 89.0569 368.273C89.3298 368.327 89.5911 368.405 89.8406 368.507V367.875C89.8406 367.454 89.7158 367.138 89.4663 366.928C89.2168 366.717 88.8581 366.612 88.3903 366.612C88.1174 366.612 87.8328 366.655 87.5365 366.741C87.2402 366.819 86.9088 366.943 86.5423 367.115L86.1096 366.238C86.554 366.027 86.9751 365.875 87.3727 365.782C87.7704 365.68 88.1642 365.63 88.554 365.63C89.3259 365.63 89.9224 365.817 90.3435 366.191C90.7723 366.557 90.9868 367.08 90.9868 367.758V371.7H89.8406V371.185C89.5755 371.396 89.2909 371.552 88.9868 371.653C88.6827 371.754 88.3513 371.805 87.9926 371.805ZM86.9283 369.969C86.9283 370.257 87.0491 370.491 87.2909 370.67C87.5404 370.85 87.864 370.939 88.2616 370.939C88.5735 370.939 88.862 370.893 89.1271 370.799C89.3922 370.706 89.63 370.565 89.8406 370.378V369.349C89.6144 369.224 89.3766 369.134 89.1271 369.08C88.8776 369.017 88.6047 368.986 88.3084 368.986C87.8873 368.986 87.5521 369.076 87.3026 369.255C87.053 369.435 86.9283 369.672 86.9283 369.969ZM91.773 370.928L92.4046 370.156C92.7165 370.398 93.0323 370.585 93.352 370.717C93.6795 370.842 94.0109 370.904 94.3461 370.904C94.7672 370.904 95.1103 370.823 95.3754 370.659C95.6405 370.495 95.773 370.281 95.773 370.015C95.773 369.805 95.6951 369.637 95.5391 369.513C95.3832 369.388 95.1415 369.302 94.814 369.255L93.7379 369.103C93.1532 369.017 92.7087 368.838 92.4046 368.565C92.1083 368.285 91.9602 367.914 91.9602 367.454C91.9602 366.916 92.1746 366.483 92.6034 366.156C93.0323 365.821 93.5937 365.653 94.2877 365.653C94.7243 365.653 95.1376 365.715 95.5274 365.84C95.9251 365.965 96.311 366.156 96.6853 366.413L96.0888 367.185C95.7613 366.967 95.4417 366.811 95.1298 366.717C94.8257 366.616 94.5177 366.565 94.2058 366.565C93.8471 366.565 93.5586 366.639 93.3403 366.787C93.122 366.936 93.0128 367.131 93.0128 367.372C93.0128 367.591 93.0869 367.758 93.235 367.875C93.391 367.984 93.6444 368.066 93.9953 368.121L95.0713 368.273C95.6561 368.359 96.1005 368.542 96.4046 368.823C96.7165 369.103 96.8724 369.474 96.8724 369.934C96.8724 370.199 96.8062 370.448 96.6736 370.682C96.5489 370.908 96.3734 371.103 96.1473 371.267C95.929 371.431 95.6678 371.563 95.3637 371.665C95.0596 371.758 94.7321 371.805 94.3812 371.805C93.8666 371.805 93.3832 371.731 92.9309 371.583C92.4865 371.435 92.1005 371.216 91.773 370.928ZM97.7712 371.7V363.513L98.9408 363.255V366.343C99.1747 366.109 99.4398 365.934 99.7361 365.817C100.04 365.692 100.372 365.63 100.73 365.63C101.409 365.63 101.966 365.848 102.403 366.285C102.839 366.713 103.058 367.271 103.058 367.957V371.7H101.888V368.156C101.888 367.688 101.752 367.322 101.479 367.056C101.214 366.784 100.859 366.647 100.414 366.647C100.103 366.647 99.818 366.713 99.5607 366.846C99.3112 366.978 99.1045 367.169 98.9408 367.419V371.7H97.7712ZM106.992 371.7V363.513H113.039V364.589H108.22V367.103H111.401V368.156H108.22V371.7H106.992ZM115.046 363.255V371.7H113.876V363.513L115.046 363.255ZM116.154 368.717C116.154 368.288 116.232 367.887 116.388 367.513C116.552 367.131 116.774 366.803 117.055 366.53C117.335 366.249 117.663 366.031 118.037 365.875C118.419 365.711 118.825 365.63 119.253 365.63C119.682 365.63 120.084 365.711 120.458 365.875C120.84 366.031 121.168 366.249 121.441 366.53C121.721 366.803 121.94 367.131 122.095 367.513C122.259 367.887 122.341 368.288 122.341 368.717C122.341 369.154 122.259 369.563 122.095 369.945C121.94 370.32 121.721 370.647 121.441 370.928C121.168 371.201 120.84 371.419 120.458 371.583C120.084 371.739 119.682 371.817 119.253 371.817C118.825 371.817 118.419 371.739 118.037 371.583C117.663 371.419 117.335 371.201 117.055 370.928C116.774 370.647 116.552 370.32 116.388 369.945C116.232 369.563 116.154 369.154 116.154 368.717ZM119.253 370.787C119.791 370.787 120.248 370.589 120.622 370.191C121.004 369.785 121.195 369.294 121.195 368.717C121.195 368.14 121.004 367.653 120.622 367.255C120.248 366.858 119.791 366.659 119.253 366.659C118.715 366.659 118.255 366.858 117.873 367.255C117.491 367.653 117.3 368.14 117.3 368.717C117.3 369.294 117.487 369.785 117.862 370.191C118.244 370.589 118.708 370.787 119.253 370.787ZM125.579 371.7H124.444L122.783 365.746H123.918L125.064 370.121L126.433 365.746H127.438L128.795 370.121L129.953 365.746H131.052L129.38 371.7H128.257L126.924 367.337L125.579 371.7Z" fill="#41475E" fill-opacity="0.54"/>
<path d="M229.197 368.552V363.094H231.676C232.217 363.094 232.653 363.245 232.986 363.546C233.324 363.843 233.493 364.23 233.493 364.708C233.493 365.067 233.392 365.379 233.189 365.644C232.986 365.904 232.713 366.091 232.37 366.205L233.587 368.552H232.682L231.551 366.314H230.015V368.552H229.197ZM231.606 363.811H230.015V365.636H231.606C231.923 365.636 232.178 365.553 232.37 365.386C232.568 365.215 232.666 364.994 232.666 364.724C232.666 364.448 232.568 364.227 232.37 364.061C232.178 363.895 231.923 363.811 231.606 363.811ZM237.445 368.1C237.217 368.277 236.978 368.409 236.728 368.498C236.479 368.581 236.206 368.622 235.909 368.622C235.618 368.622 235.345 368.57 235.091 368.466C234.836 368.357 234.615 368.212 234.428 368.03C234.241 367.848 234.093 367.632 233.983 367.383C233.879 367.128 233.828 366.855 233.828 366.564C233.828 366.278 233.879 366.01 233.983 365.761C234.087 365.511 234.228 365.296 234.405 365.114C234.581 364.932 234.792 364.789 235.036 364.685C235.28 364.576 235.54 364.521 235.816 364.521C236.086 364.521 236.338 364.576 236.572 364.685C236.811 364.789 237.014 364.934 237.18 365.121C237.352 365.303 237.487 365.522 237.586 365.776C237.685 366.031 237.734 366.304 237.734 366.595V366.821H234.599C234.651 367.149 234.802 367.422 235.052 367.64C235.301 367.853 235.597 367.96 235.941 367.96C236.133 367.96 236.317 367.928 236.494 367.866C236.671 367.804 236.822 367.718 236.946 367.609L237.445 368.1ZM235.8 365.176C235.504 365.176 235.244 365.275 235.02 365.472C234.802 365.67 234.664 365.925 234.607 366.236H236.962C236.905 365.935 236.767 365.683 236.549 365.48C236.336 365.277 236.086 365.176 235.8 365.176ZM238.14 368.038L238.561 367.523C238.769 367.684 238.98 367.809 239.193 367.897C239.411 367.98 239.632 368.022 239.856 368.022C240.136 368.022 240.365 367.967 240.542 367.858C240.719 367.749 240.807 367.606 240.807 367.429C240.807 367.289 240.755 367.177 240.651 367.094C240.547 367.011 240.386 366.954 240.168 366.923L239.45 366.821C239.06 366.764 238.764 366.644 238.561 366.463C238.364 366.275 238.265 366.028 238.265 365.722C238.265 365.363 238.408 365.075 238.694 364.856C238.98 364.633 239.354 364.521 239.817 364.521C240.108 364.521 240.383 364.563 240.643 364.646C240.908 364.729 241.166 364.856 241.415 365.028L241.018 365.542C240.799 365.397 240.586 365.293 240.378 365.231C240.175 365.163 239.97 365.129 239.762 365.129C239.523 365.129 239.331 365.179 239.185 365.277C239.04 365.376 238.967 365.506 238.967 365.667C238.967 365.813 239.016 365.925 239.115 366.002C239.219 366.075 239.388 366.13 239.622 366.166L240.339 366.268C240.729 366.325 241.025 366.447 241.228 366.634C241.436 366.821 241.54 367.068 241.54 367.375C241.54 367.552 241.496 367.718 241.407 367.874C241.324 368.025 241.207 368.155 241.057 368.264C240.911 368.373 240.737 368.461 240.534 368.529C240.331 368.591 240.113 368.622 239.879 368.622C239.536 368.622 239.214 368.573 238.912 368.474C238.616 368.375 238.359 368.23 238.14 368.038ZM242.903 364.583V366.938C242.903 367.25 242.992 367.497 243.168 367.679C243.35 367.861 243.589 367.952 243.886 367.952C244.094 367.952 244.281 367.908 244.447 367.819C244.613 367.726 244.751 367.596 244.86 367.429V364.583H245.64V368.552H244.86V368.155C244.704 368.31 244.525 368.43 244.322 368.513C244.125 368.591 243.907 368.63 243.667 368.63C243.215 368.63 242.844 368.485 242.552 368.194C242.267 367.902 242.124 367.528 242.124 367.071V364.583H242.903ZM246.563 368.552V364.583H247.343V364.958C247.488 364.812 247.655 364.7 247.842 364.622C248.029 364.544 248.234 364.505 248.458 364.505C248.723 364.505 248.962 364.565 249.175 364.685C249.388 364.799 249.557 364.96 249.682 365.168C249.843 364.95 250.036 364.786 250.259 364.677C250.488 364.563 250.743 364.505 251.023 364.505C251.46 364.505 251.816 364.651 252.091 364.942C252.372 365.228 252.513 365.6 252.513 366.057V368.552H251.733V366.19C251.733 365.878 251.65 365.633 251.483 365.457C251.322 365.275 251.101 365.184 250.82 365.184C250.628 365.184 250.454 365.228 250.298 365.316C250.142 365.405 250.007 365.537 249.893 365.714C249.903 365.766 249.911 365.823 249.916 365.886C249.921 365.943 249.924 366 249.924 366.057V368.552H249.152V366.19C249.152 365.878 249.069 365.633 248.902 365.457C248.741 365.275 248.52 365.184 248.24 365.184C248.052 365.184 247.884 365.225 247.733 365.309C247.582 365.386 247.452 365.506 247.343 365.667V368.552H246.563ZM256.847 368.1C256.619 368.277 256.379 368.409 256.13 368.498C255.88 368.581 255.607 368.622 255.311 368.622C255.02 368.622 254.747 368.57 254.492 368.466C254.238 368.357 254.017 368.212 253.83 368.03C253.643 367.848 253.494 367.632 253.385 367.383C253.281 367.128 253.229 366.855 253.229 366.564C253.229 366.278 253.281 366.01 253.385 365.761C253.489 365.511 253.63 365.296 253.806 365.114C253.983 364.932 254.194 364.789 254.438 364.685C254.682 364.576 254.942 364.521 255.218 364.521C255.488 364.521 255.74 364.576 255.974 364.685C256.213 364.789 256.416 364.934 256.582 365.121C256.754 365.303 256.889 365.522 256.988 365.776C257.086 366.031 257.136 366.304 257.136 366.595V366.821H254.001C254.053 367.149 254.204 367.422 254.453 367.64C254.703 367.853 254.999 367.96 255.342 367.96C255.535 367.96 255.719 367.928 255.896 367.866C256.073 367.804 256.223 367.718 256.348 367.609L256.847 368.1ZM255.202 365.176C254.906 365.176 254.646 365.275 254.422 365.472C254.204 365.67 254.066 365.925 254.009 366.236H256.364C256.307 365.935 256.169 365.683 255.951 365.48C255.737 365.277 255.488 365.176 255.202 365.176Z" fill="#41475E" fill-opacity="0.54"/>
<path d="M31.594 306.933H32.3972L35.4381 310.98V306.933H36.21V312.391H35.4927L32.366 308.212V312.391H31.594V306.933ZM40.6728 311.939C40.4441 312.116 40.205 312.248 39.9555 312.337C39.7059 312.42 39.433 312.462 39.1367 312.462C38.8456 312.462 38.5727 312.41 38.318 312.306C38.0633 312.197 37.8424 312.051 37.6553 311.869C37.4681 311.687 37.32 311.471 37.2108 311.222C37.1069 310.967 37.0549 310.694 37.0549 310.403C37.0549 310.117 37.1069 309.85 37.2108 309.6C37.3148 309.351 37.4551 309.135 37.6319 308.953C37.8086 308.771 38.0191 308.628 38.2634 308.524C38.5078 308.415 38.7677 308.36 39.0432 308.36C39.3135 308.36 39.5656 308.415 39.7995 308.524C40.0386 308.628 40.2414 308.774 40.4077 308.961C40.5792 309.143 40.7144 309.361 40.8132 309.616C40.9119 309.87 40.9613 310.143 40.9613 310.434V310.66H37.8268C37.8788 310.988 38.0295 311.261 38.279 311.479C38.5286 311.692 38.8248 311.799 39.1679 311.799C39.3603 311.799 39.5448 311.768 39.7215 311.705C39.8983 311.643 40.049 311.557 40.1738 311.448L40.6728 311.939ZM39.0276 309.015C38.7313 309.015 38.4714 309.114 38.2479 309.312C38.0295 309.509 37.8918 309.764 37.8346 310.076H40.1894C40.1322 309.774 39.9944 309.522 39.7761 309.319C39.563 309.117 39.3135 309.015 39.0276 309.015ZM42.0663 311.409V309.078H41.2242V308.423H42.0663V307.409L42.8382 307.222V308.423H44.0078V309.078H42.8382V311.23C42.8382 311.432 42.8824 311.575 42.9707 311.659C43.0643 311.742 43.2151 311.783 43.423 311.783C43.5321 311.783 43.6283 311.778 43.7115 311.768C43.7998 311.752 43.8934 311.726 43.9922 311.69V312.345C43.8882 312.381 43.7661 312.41 43.6257 312.43C43.4906 312.451 43.3658 312.462 43.2514 312.462C42.8668 312.462 42.5731 312.373 42.3704 312.197C42.1676 312.015 42.0663 311.752 42.0663 311.409ZM48.9564 311.721C49.2682 311.721 49.5671 311.659 49.853 311.534C50.1389 311.404 50.3807 311.222 50.5782 310.988L51.1162 311.534C50.8511 311.825 50.5236 312.056 50.1337 312.228C49.7491 312.394 49.3488 312.477 48.933 312.477C48.5327 312.477 48.1558 312.404 47.8024 312.259C47.4541 312.113 47.1526 311.916 46.8979 311.666C46.6432 311.412 46.4404 311.113 46.2897 310.77C46.1441 310.421 46.0714 310.052 46.0714 309.662C46.0714 309.267 46.1441 308.898 46.2897 308.555C46.4404 308.212 46.6432 307.916 46.8979 307.666C47.1526 307.412 47.4541 307.211 47.8024 307.066C48.1558 306.92 48.5327 306.848 48.933 306.848C49.3592 306.848 49.7673 306.933 50.1571 307.105C50.5522 307.271 50.8771 307.5 51.1318 307.791L50.586 308.352C50.3781 308.113 50.1285 307.929 49.8374 307.799C49.5464 307.669 49.2449 307.604 48.933 307.604C48.6471 307.604 48.3794 307.656 48.1298 307.76C47.8803 307.864 47.6646 308.009 47.4827 308.197C47.3059 308.378 47.1656 308.597 47.0616 308.851C46.9577 309.101 46.9057 309.371 46.9057 309.662C46.9057 309.954 46.9577 310.226 47.0616 310.481C47.1656 310.731 47.3085 310.946 47.4905 311.128C47.6724 311.31 47.8881 311.456 48.1376 311.565C48.3924 311.669 48.6653 311.721 48.9564 311.721ZM53.079 312.462C52.6475 312.462 52.2967 312.35 52.0263 312.126C51.756 311.903 51.6209 311.612 51.6209 311.253C51.6209 310.879 51.7638 310.585 52.0497 310.372C52.3356 310.154 52.7281 310.044 53.2271 310.044C53.4195 310.044 53.6066 310.065 53.7885 310.107C53.9705 310.143 54.1446 310.195 54.3109 310.263V309.842C54.3109 309.561 54.2278 309.351 54.0614 309.21C53.8951 309.07 53.656 309 53.3441 309C53.1622 309 52.9724 309.028 52.7749 309.085C52.5774 309.137 52.3564 309.221 52.1121 309.335L51.8236 308.75C52.1199 308.61 52.4006 308.508 52.6657 308.446C52.9308 308.378 53.1933 308.345 53.4532 308.345C53.9679 308.345 54.3655 308.469 54.6462 308.719C54.9321 308.963 55.0751 309.312 55.0751 309.764V312.391H54.3109V312.048C54.1342 312.189 53.9445 312.293 53.7417 312.36C53.539 312.428 53.3181 312.462 53.079 312.462ZM52.3694 311.237C52.3694 311.43 52.45 311.586 52.6111 311.705C52.7775 311.825 52.9932 311.885 53.2583 311.885C53.4662 311.885 53.6586 311.853 53.8353 311.791C54.0121 311.729 54.1706 311.635 54.3109 311.51V310.824C54.1602 310.741 54.0017 310.681 53.8353 310.645C53.669 310.603 53.487 310.582 53.2895 310.582C53.0088 310.582 52.7853 310.642 52.6189 310.762C52.4526 310.881 52.3694 311.04 52.3694 311.237ZM55.5993 311.877L56.0203 311.362C56.2282 311.523 56.4388 311.648 56.6519 311.736C56.8702 311.82 57.0911 311.861 57.3147 311.861C57.5954 311.861 57.8241 311.807 58.0008 311.697C58.1776 311.588 58.2659 311.445 58.2659 311.269C58.2659 311.128 58.2139 311.017 58.11 310.933C58.006 310.85 57.8449 310.793 57.6266 310.762L56.9092 310.66C56.5193 310.603 56.223 310.484 56.0203 310.302C55.8228 310.115 55.724 309.868 55.724 309.561C55.724 309.202 55.867 308.914 56.1529 308.696C56.4388 308.472 56.813 308.36 57.2757 308.36C57.5668 308.36 57.8423 308.402 58.1022 308.485C58.3673 308.568 58.6246 308.696 58.8741 308.867L58.4765 309.382C58.2581 309.236 58.045 309.132 57.8371 309.07C57.6343 309.002 57.429 308.968 57.2211 308.968C56.982 308.968 56.7896 309.018 56.6441 309.117C56.4985 309.215 56.4258 309.345 56.4258 309.506C56.4258 309.652 56.4752 309.764 56.5739 309.842C56.6779 309.915 56.8468 309.969 57.0807 310.005L57.7981 310.107C58.188 310.164 58.4843 310.286 58.687 310.473C58.8949 310.66 58.9989 310.907 58.9989 311.214C58.9989 311.391 58.9547 311.557 58.8663 311.713C58.7831 311.864 58.6662 311.994 58.5154 312.103C58.3699 312.212 58.1958 312.3 57.993 312.368C57.7903 312.43 57.572 312.462 57.3381 312.462C56.995 312.462 56.6727 312.412 56.3712 312.313C56.0749 312.215 55.8176 312.069 55.5993 311.877ZM59.598 312.391V306.933L60.3778 306.762V308.82C60.5337 308.664 60.7105 308.547 60.908 308.469C61.1107 308.386 61.3316 308.345 61.5708 308.345C62.023 308.345 62.3947 308.49 62.6858 308.781C62.9769 309.067 63.1224 309.439 63.1224 309.896V312.391H62.3427V310.029C62.3427 309.717 62.2517 309.473 62.0698 309.296C61.893 309.114 61.6565 309.023 61.3602 309.023C61.1523 309.023 60.9626 309.067 60.791 309.156C60.6247 309.244 60.4869 309.371 60.3778 309.538V312.391H59.598ZM63.5423 308.423H64.4624V307.822C64.4624 307.412 64.5767 307.097 64.8055 306.879C65.0394 306.655 65.3747 306.543 65.8113 306.543C65.9153 306.543 66.014 306.551 66.1076 306.567C66.2012 306.577 66.2895 306.593 66.3727 306.614V307.292C66.2791 307.266 66.196 307.248 66.1232 307.237C66.0504 307.227 65.9699 307.222 65.8815 307.222C65.6684 307.222 65.5072 307.274 65.3981 307.378C65.2941 307.477 65.2421 307.63 65.2421 307.838V308.423H66.3727V309.078H65.2421V312.391H64.4624V309.078H63.5423V308.423ZM67.7486 306.762V312.391H66.9689V306.933L67.7486 306.762ZM68.4876 310.403C68.4876 310.117 68.5396 309.85 68.6435 309.6C68.7527 309.345 68.9009 309.127 69.088 308.945C69.2751 308.758 69.4934 308.612 69.743 308.508C69.9977 308.399 70.268 308.345 70.5539 308.345C70.8398 308.345 71.1075 308.399 71.357 308.508C71.6117 308.612 71.83 308.758 72.012 308.945C72.1991 309.127 72.3446 309.345 72.4486 309.6C72.5578 309.85 72.6123 310.117 72.6123 310.403C72.6123 310.694 72.5578 310.967 72.4486 311.222C72.3446 311.471 72.1991 311.69 72.012 311.877C71.83 312.059 71.6117 312.204 71.357 312.313C71.1075 312.417 70.8398 312.469 70.5539 312.469C70.268 312.469 69.9977 312.417 69.743 312.313C69.4934 312.204 69.2751 312.059 69.088 311.877C68.9009 311.69 68.7527 311.471 68.6435 311.222C68.5396 310.967 68.4876 310.694 68.4876 310.403ZM70.5539 311.783C70.9125 311.783 71.2166 311.651 71.4662 311.386C71.7209 311.115 71.8482 310.788 71.8482 310.403C71.8482 310.018 71.7209 309.694 71.4662 309.428C71.2166 309.163 70.9125 309.031 70.5539 309.031C70.1952 309.031 69.8885 309.163 69.6338 309.428C69.3791 309.694 69.2517 310.018 69.2517 310.403C69.2517 310.788 69.3765 311.115 69.626 311.386C69.8807 311.651 70.19 311.783 70.5539 311.783ZM74.7708 312.391H74.0145L72.9072 308.423H73.6636L74.4277 311.339L75.34 308.423H76.0106L76.915 311.339L77.687 308.423H78.4199L77.3049 312.391H76.5564L75.6675 309.483L74.7708 312.391Z" fill="#41475E" fill-opacity="0.54"/>
<path d="M156.396 306.933H157.199L160.24 310.98V306.933H161.012V312.391H160.294L157.168 308.212V312.391H156.396V306.933ZM165.474 311.939C165.246 312.116 165.007 312.248 164.757 312.337C164.508 312.42 164.235 312.462 163.938 312.462C163.647 312.462 163.374 312.41 163.12 312.306C162.865 312.197 162.644 312.051 162.457 311.869C162.27 311.687 162.122 311.471 162.012 311.222C161.909 310.967 161.857 310.694 161.857 310.403C161.857 310.117 161.909 309.85 162.012 309.6C162.116 309.351 162.257 309.135 162.434 308.953C162.61 308.771 162.821 308.628 163.065 308.524C163.309 308.415 163.569 308.36 163.845 308.36C164.115 308.36 164.367 308.415 164.601 308.524C164.84 308.628 165.043 308.774 165.209 308.961C165.381 309.143 165.516 309.361 165.615 309.616C165.714 309.87 165.763 310.143 165.763 310.434V310.66H162.628C162.68 310.988 162.831 311.261 163.081 311.479C163.33 311.692 163.627 311.799 163.97 311.799C164.162 311.799 164.346 311.768 164.523 311.705C164.7 311.643 164.851 311.557 164.975 311.448L165.474 311.939ZM163.829 309.015C163.533 309.015 163.273 309.114 163.05 309.312C162.831 309.509 162.693 309.764 162.636 310.076H164.991C164.934 309.774 164.796 309.522 164.578 309.319C164.365 309.117 164.115 309.015 163.829 309.015ZM166.868 311.409V309.078H166.026V308.423H166.868V307.409L167.64 307.222V308.423H168.809V309.078H167.64V311.23C167.64 311.432 167.684 311.575 167.772 311.659C167.866 311.742 168.017 311.783 168.225 311.783C168.334 311.783 168.43 311.778 168.513 311.768C168.602 311.752 168.695 311.726 168.794 311.69V312.345C168.69 312.381 168.568 312.41 168.427 312.43C168.292 312.451 168.167 312.462 168.053 312.462C167.668 312.462 167.375 312.373 167.172 312.197C166.969 312.015 166.868 311.752 166.868 311.409ZM173.758 311.721C174.07 311.721 174.369 311.659 174.655 311.534C174.941 311.404 175.182 311.222 175.38 310.988L175.918 311.534C175.653 311.825 175.325 312.056 174.935 312.228C174.551 312.394 174.15 312.477 173.735 312.477C173.334 312.477 172.958 312.404 172.604 312.259C172.256 312.113 171.954 311.916 171.7 311.666C171.445 311.412 171.242 311.113 171.091 310.77C170.946 310.421 170.873 310.052 170.873 309.662C170.873 309.267 170.946 308.898 171.091 308.555C171.242 308.212 171.445 307.916 171.7 307.666C171.954 307.412 172.256 307.211 172.604 307.066C172.958 306.92 173.334 306.848 173.735 306.848C174.161 306.848 174.569 306.933 174.959 307.105C175.354 307.271 175.679 307.5 175.933 307.791L175.388 308.352C175.18 308.113 174.93 307.929 174.639 307.799C174.348 307.669 174.047 307.604 173.735 307.604C173.449 307.604 173.181 307.656 172.932 307.76C172.682 307.864 172.466 308.009 172.284 308.197C172.108 308.378 171.967 308.597 171.863 308.851C171.759 309.101 171.707 309.371 171.707 309.662C171.707 309.954 171.759 310.226 171.863 310.481C171.967 310.731 172.11 310.946 172.292 311.128C172.474 311.31 172.69 311.456 172.939 311.565C173.194 311.669 173.467 311.721 173.758 311.721ZM177.881 312.462C177.449 312.462 177.098 312.35 176.828 312.126C176.558 311.903 176.423 311.612 176.423 311.253C176.423 310.879 176.566 310.585 176.851 310.372C177.137 310.154 177.53 310.044 178.029 310.044C178.221 310.044 178.408 310.065 178.59 310.107C178.772 310.143 178.946 310.195 179.113 310.263V309.842C179.113 309.561 179.029 309.351 178.863 309.21C178.697 309.07 178.458 309 178.146 309C177.964 309 177.774 309.028 177.577 309.085C177.379 309.137 177.158 309.221 176.914 309.335L176.625 308.75C176.922 308.61 177.202 308.508 177.467 308.446C177.732 308.378 177.995 308.345 178.255 308.345C178.77 308.345 179.167 308.469 179.448 308.719C179.734 308.963 179.877 309.312 179.877 309.764V312.391H179.113V312.048C178.936 312.189 178.746 312.293 178.543 312.36C178.341 312.428 178.12 312.462 177.881 312.462ZM177.171 311.237C177.171 311.43 177.252 311.586 177.413 311.705C177.579 311.825 177.795 311.885 178.06 311.885C178.268 311.885 178.46 311.853 178.637 311.791C178.814 311.729 178.972 311.635 179.113 311.51V310.824C178.962 310.741 178.803 310.681 178.637 310.645C178.471 310.603 178.289 310.582 178.091 310.582C177.81 310.582 177.587 310.642 177.421 310.762C177.254 310.881 177.171 311.04 177.171 311.237ZM180.401 311.877L180.822 311.362C181.03 311.523 181.24 311.648 181.454 311.736C181.672 311.82 181.893 311.861 182.116 311.861C182.397 311.861 182.626 311.807 182.802 311.697C182.979 311.588 183.068 311.445 183.068 311.269C183.068 311.128 183.016 311.017 182.912 310.933C182.808 310.85 182.647 310.793 182.428 310.762L181.711 310.66C181.321 310.603 181.025 310.484 180.822 310.302C180.624 310.115 180.526 309.868 180.526 309.561C180.526 309.202 180.669 308.914 180.955 308.696C181.24 308.472 181.615 308.36 182.077 308.36C182.368 308.36 182.644 308.402 182.904 308.485C183.169 308.568 183.426 308.696 183.676 308.867L183.278 309.382C183.06 309.236 182.847 309.132 182.639 309.07C182.436 309.002 182.231 308.968 182.023 308.968C181.784 308.968 181.591 309.018 181.446 309.117C181.3 309.215 181.227 309.345 181.227 309.506C181.227 309.652 181.277 309.764 181.376 309.842C181.48 309.915 181.648 309.969 181.882 310.005L182.6 310.107C182.99 310.164 183.286 310.286 183.489 310.473C183.697 310.66 183.801 310.907 183.801 311.214C183.801 311.391 183.756 311.557 183.668 311.713C183.585 311.864 183.468 311.994 183.317 312.103C183.172 312.212 182.997 312.3 182.795 312.368C182.592 312.43 182.374 312.462 182.14 312.462C181.797 312.462 181.474 312.412 181.173 312.313C180.877 312.215 180.619 312.069 180.401 311.877ZM184.4 312.391V306.933L185.179 306.762V308.82C185.335 308.664 185.512 308.547 185.71 308.469C185.912 308.386 186.133 308.345 186.372 308.345C186.825 308.345 187.196 308.49 187.487 308.781C187.779 309.067 187.924 309.439 187.924 309.896V312.391H187.144V310.029C187.144 309.717 187.053 309.473 186.871 309.296C186.695 309.114 186.458 309.023 186.162 309.023C185.954 309.023 185.764 309.067 185.593 309.156C185.426 309.244 185.289 309.371 185.179 309.538V312.391H184.4ZM188.344 308.423H189.264V307.822C189.264 307.412 189.378 307.097 189.607 306.879C189.841 306.655 190.176 306.543 190.613 306.543C190.717 306.543 190.816 306.551 190.909 306.567C191.003 306.577 191.091 306.593 191.174 306.614V307.292C191.081 307.266 190.998 307.248 190.925 307.237C190.852 307.227 190.772 307.222 190.683 307.222C190.47 307.222 190.309 307.274 190.2 307.378C190.096 307.477 190.044 307.63 190.044 307.838V308.423H191.174V309.078H190.044V312.391H189.264V309.078H188.344V308.423ZM192.55 306.762V312.391H191.771V306.933L192.55 306.762ZM193.289 310.403C193.289 310.117 193.341 309.85 193.445 309.6C193.554 309.345 193.703 309.127 193.89 308.945C194.077 308.758 194.295 308.612 194.545 308.508C194.799 308.399 195.07 308.345 195.356 308.345C195.641 308.345 195.909 308.399 196.159 308.508C196.413 308.612 196.632 308.758 196.814 308.945C197.001 309.127 197.146 309.345 197.25 309.6C197.359 309.85 197.414 310.117 197.414 310.403C197.414 310.694 197.359 310.967 197.25 311.222C197.146 311.471 197.001 311.69 196.814 311.877C196.632 312.059 196.413 312.204 196.159 312.313C195.909 312.417 195.641 312.469 195.356 312.469C195.07 312.469 194.799 312.417 194.545 312.313C194.295 312.204 194.077 312.059 193.89 311.877C193.703 311.69 193.554 311.471 193.445 311.222C193.341 310.967 193.289 310.694 193.289 310.403ZM195.356 311.783C195.714 311.783 196.018 311.651 196.268 311.386C196.523 311.115 196.65 310.788 196.65 310.403C196.65 310.018 196.523 309.694 196.268 309.428C196.018 309.163 195.714 309.031 195.356 309.031C194.997 309.031 194.69 309.163 194.435 309.428C194.181 309.694 194.053 310.018 194.053 310.403C194.053 310.788 194.178 311.115 194.428 311.386C194.682 311.651 194.992 311.783 195.356 311.783ZM199.572 312.391H198.816L197.709 308.423H198.465L199.229 311.339L200.142 308.423H200.812L201.717 311.339L202.489 308.423H203.222L202.107 312.391H201.358L200.469 309.483L199.572 312.391Z" fill="#41475E" fill-opacity="0.54"/>
<path d="M266.637 306.933H267.44L270.481 310.98V306.933H271.253V312.391H270.536L267.409 308.212V312.391H266.637V306.933ZM275.716 311.939C275.487 312.116 275.248 312.248 274.999 312.337C274.749 312.42 274.476 312.462 274.18 312.462C273.889 312.462 273.616 312.41 273.361 312.306C273.106 312.197 272.885 312.051 272.698 311.869C272.511 311.687 272.363 311.471 272.254 311.222C272.15 310.967 272.098 310.694 272.098 310.403C272.098 310.117 272.15 309.85 272.254 309.6C272.358 309.351 272.498 309.135 272.675 308.953C272.852 308.771 273.062 308.628 273.307 308.524C273.551 308.415 273.811 308.36 274.086 308.36C274.357 308.36 274.609 308.415 274.843 308.524C275.082 308.628 275.284 308.774 275.451 308.961C275.622 309.143 275.757 309.361 275.856 309.616C275.955 309.87 276.004 310.143 276.004 310.434V310.66H272.87C272.922 310.988 273.073 311.261 273.322 311.479C273.572 311.692 273.868 311.799 274.211 311.799C274.403 311.799 274.588 311.768 274.765 311.705C274.941 311.643 275.092 311.557 275.217 311.448L275.716 311.939ZM274.071 309.015C273.774 309.015 273.514 309.114 273.291 309.312C273.073 309.509 272.935 309.764 272.878 310.076H275.232C275.175 309.774 275.037 309.522 274.819 309.319C274.606 309.117 274.357 309.015 274.071 309.015ZM277.109 311.409V309.078H276.267V308.423H277.109V307.409L277.881 307.222V308.423H279.051V309.078H277.881V311.23C277.881 311.432 277.925 311.575 278.014 311.659C278.107 311.742 278.258 311.783 278.466 311.783C278.575 311.783 278.671 311.778 278.755 311.768C278.843 311.752 278.936 311.726 279.035 311.69V312.345C278.931 312.381 278.809 312.41 278.669 312.43C278.534 312.451 278.409 312.462 278.295 312.462C277.91 312.462 277.616 312.373 277.413 312.197C277.211 312.015 277.109 311.752 277.109 311.409ZM283.999 311.721C284.311 311.721 284.61 311.659 284.896 311.534C285.182 311.404 285.424 311.222 285.621 310.988L286.159 311.534C285.894 311.825 285.567 312.056 285.177 312.228C284.792 312.394 284.392 312.477 283.976 312.477C283.576 312.477 283.199 312.404 282.845 312.259C282.497 312.113 282.196 311.916 281.941 311.666C281.686 311.412 281.484 311.113 281.333 310.77C281.187 310.421 281.114 310.052 281.114 309.662C281.114 309.267 281.187 308.898 281.333 308.555C281.484 308.212 281.686 307.916 281.941 307.666C282.196 307.412 282.497 307.211 282.845 307.066C283.199 306.92 283.576 306.848 283.976 306.848C284.402 306.848 284.81 306.933 285.2 307.105C285.595 307.271 285.92 307.5 286.175 307.791L285.629 308.352C285.421 308.113 285.172 307.929 284.881 307.799C284.589 307.669 284.288 307.604 283.976 307.604C283.69 307.604 283.422 307.656 283.173 307.76C282.923 307.864 282.708 308.009 282.526 308.197C282.349 308.378 282.209 308.597 282.105 308.851C282.001 309.101 281.949 309.371 281.949 309.662C281.949 309.954 282.001 310.226 282.105 310.481C282.209 310.731 282.352 310.946 282.534 311.128C282.715 311.31 282.931 311.456 283.181 311.565C283.435 311.669 283.708 311.721 283.999 311.721ZM288.122 312.462C287.691 312.462 287.34 312.35 287.069 312.126C286.799 311.903 286.664 311.612 286.664 311.253C286.664 310.879 286.807 310.585 287.093 310.372C287.379 310.154 287.771 310.044 288.27 310.044C288.463 310.044 288.65 310.065 288.832 310.107C289.014 310.143 289.188 310.195 289.354 310.263V309.842C289.354 309.561 289.271 309.351 289.104 309.21C288.938 309.07 288.699 309 288.387 309C288.205 309 288.015 309.028 287.818 309.085C287.62 309.137 287.399 309.221 287.155 309.335L286.867 308.75C287.163 308.61 287.444 308.508 287.709 308.446C287.974 308.378 288.236 308.345 288.496 308.345C289.011 308.345 289.409 308.469 289.689 308.719C289.975 308.963 290.118 309.312 290.118 309.764V312.391H289.354V312.048C289.177 312.189 288.988 312.293 288.785 312.36C288.582 312.428 288.361 312.462 288.122 312.462ZM287.412 311.237C287.412 311.43 287.493 311.586 287.654 311.705C287.821 311.825 288.036 311.885 288.301 311.885C288.509 311.885 288.702 311.853 288.878 311.791C289.055 311.729 289.214 311.635 289.354 311.51V310.824C289.203 310.741 289.045 310.681 288.878 310.645C288.712 310.603 288.53 310.582 288.333 310.582C288.052 310.582 287.828 310.642 287.662 310.762C287.496 310.881 287.412 311.04 287.412 311.237ZM290.642 311.877L291.063 311.362C291.271 311.523 291.482 311.648 291.695 311.736C291.913 311.82 292.134 311.861 292.358 311.861C292.638 311.861 292.867 311.807 293.044 311.697C293.221 311.588 293.309 311.445 293.309 311.269C293.309 311.128 293.257 311.017 293.153 310.933C293.049 310.85 292.888 310.793 292.67 310.762L291.952 310.66C291.562 310.603 291.266 310.484 291.063 310.302C290.866 310.115 290.767 309.868 290.767 309.561C290.767 309.202 290.91 308.914 291.196 308.696C291.482 308.472 291.856 308.36 292.319 308.36C292.61 308.36 292.885 308.402 293.145 308.485C293.41 308.568 293.668 308.696 293.917 308.867L293.52 309.382C293.301 309.236 293.088 309.132 292.88 309.07C292.677 309.002 292.472 308.968 292.264 308.968C292.025 308.968 291.833 309.018 291.687 309.117C291.542 309.215 291.469 309.345 291.469 309.506C291.469 309.652 291.518 309.764 291.617 309.842C291.721 309.915 291.89 309.969 292.124 310.005L292.841 310.107C293.231 310.164 293.527 310.286 293.73 310.473C293.938 310.66 294.042 310.907 294.042 311.214C294.042 311.391 293.998 311.557 293.909 311.713C293.826 311.864 293.709 311.994 293.559 312.103C293.413 312.212 293.239 312.3 293.036 312.368C292.833 312.43 292.615 312.462 292.381 312.462C292.038 312.462 291.716 312.412 291.414 312.313C291.118 312.215 290.861 312.069 290.642 311.877ZM294.641 312.391V306.933L295.421 306.762V308.82C295.577 308.664 295.754 308.547 295.951 308.469C296.154 308.386 296.375 308.345 296.614 308.345C297.066 308.345 297.438 308.49 297.729 308.781C298.02 309.067 298.165 309.439 298.165 309.896V312.391H297.386V310.029C297.386 309.717 297.295 309.473 297.113 309.296C296.936 309.114 296.7 309.023 296.403 309.023C296.195 309.023 296.006 309.067 295.834 309.156C295.668 309.244 295.53 309.371 295.421 309.538V312.391H294.641ZM298.585 308.423H299.505V307.822C299.505 307.412 299.62 307.097 299.849 306.879C300.082 306.655 300.418 306.543 300.854 306.543C300.958 306.543 301.057 306.551 301.151 306.567C301.244 306.577 301.333 306.593 301.416 306.614V307.292C301.322 307.266 301.239 307.248 301.166 307.237C301.093 307.227 301.013 307.222 300.925 307.222C300.711 307.222 300.55 307.274 300.441 307.378C300.337 307.477 300.285 307.63 300.285 307.838V308.423H301.416V309.078H300.285V312.391H299.505V309.078H298.585V308.423ZM302.792 306.762V312.391H302.012V306.933L302.792 306.762ZM303.531 310.403C303.531 310.117 303.583 309.85 303.687 309.6C303.796 309.345 303.944 309.127 304.131 308.945C304.318 308.758 304.537 308.612 304.786 308.508C305.041 308.399 305.311 308.345 305.597 308.345C305.883 308.345 306.151 308.399 306.4 308.508C306.655 308.612 306.873 308.758 307.055 308.945C307.242 309.127 307.388 309.345 307.492 309.6C307.601 309.85 307.655 310.117 307.655 310.403C307.655 310.694 307.601 310.967 307.492 311.222C307.388 311.471 307.242 311.69 307.055 311.877C306.873 312.059 306.655 312.204 306.4 312.313C306.151 312.417 305.883 312.469 305.597 312.469C305.311 312.469 305.041 312.417 304.786 312.313C304.537 312.204 304.318 312.059 304.131 311.877C303.944 311.69 303.796 311.471 303.687 311.222C303.583 310.967 303.531 310.694 303.531 310.403ZM305.597 311.783C305.956 311.783 306.26 311.651 306.509 311.386C306.764 311.115 306.891 310.788 306.891 310.403C306.891 310.018 306.764 309.694 306.509 309.428C306.26 309.163 305.956 309.031 305.597 309.031C305.238 309.031 304.932 309.163 304.677 309.428C304.422 309.694 304.295 310.018 304.295 310.403C304.295 310.788 304.42 311.115 304.669 311.386C304.924 311.651 305.233 311.783 305.597 311.783ZM309.814 312.391H309.058L307.95 308.423H308.707L309.471 311.339L310.383 308.423H311.054L311.958 311.339L312.73 308.423H313.463L312.348 312.391H311.599L310.711 309.483L309.814 312.391Z" fill="#41475E" fill-opacity="0.54"/>
<path d="M285.357 368.552V363.094H289.381V363.811H286.176V365.449H288.281V366.151H286.176V367.835H289.412V368.552H285.357ZM289.685 368.552L291.229 366.517L289.747 364.583H290.66L291.681 365.948L292.703 364.583H293.584L292.118 366.509L293.685 368.552H292.765L291.673 367.086L290.566 368.552H289.685ZM294.158 370.166V364.583H294.929V364.965C295.091 364.82 295.275 364.711 295.483 364.638C295.691 364.56 295.912 364.521 296.146 364.521C296.427 364.521 296.689 364.576 296.933 364.685C297.178 364.789 297.388 364.932 297.565 365.114C297.747 365.296 297.89 365.511 297.994 365.761C298.098 366.01 298.15 366.278 298.15 366.564C298.15 366.85 298.098 367.12 297.994 367.375C297.89 367.624 297.747 367.84 297.565 368.022C297.388 368.204 297.175 368.349 296.926 368.459C296.676 368.563 296.411 368.615 296.13 368.615C295.912 368.615 295.699 368.581 295.491 368.513C295.288 368.446 295.104 368.349 294.937 368.225V370.166H294.158ZM296.045 365.199C295.821 365.199 295.613 365.241 295.421 365.324C295.228 365.407 295.067 365.524 294.937 365.675V367.468C295.062 367.614 295.221 367.728 295.413 367.811C295.61 367.895 295.821 367.936 296.045 367.936C296.424 367.936 296.741 367.806 296.996 367.546C297.256 367.286 297.386 366.962 297.386 366.572C297.386 366.182 297.256 365.857 296.996 365.597C296.736 365.332 296.419 365.199 296.045 365.199ZM302.348 368.1C302.119 368.277 301.88 368.409 301.63 368.498C301.381 368.581 301.108 368.622 300.812 368.622C300.52 368.622 300.248 368.57 299.993 368.466C299.738 368.357 299.517 368.212 299.33 368.03C299.143 367.848 298.995 367.632 298.886 367.383C298.782 367.128 298.73 366.855 298.73 366.564C298.73 366.278 298.782 366.01 298.886 365.761C298.99 365.511 299.13 365.296 299.307 365.114C299.483 364.932 299.694 364.789 299.938 364.685C300.183 364.576 300.442 364.521 300.718 364.521C300.988 364.521 301.24 364.576 301.474 364.685C301.713 364.789 301.916 364.934 302.083 365.121C302.254 365.303 302.389 365.522 302.488 365.776C302.587 366.031 302.636 366.304 302.636 366.595V366.821H299.502C299.554 367.149 299.704 367.422 299.954 367.64C300.203 367.853 300.5 367.96 300.843 367.96C301.035 367.96 301.22 367.928 301.396 367.866C301.573 367.804 301.724 367.718 301.849 367.609L302.348 368.1ZM300.702 365.176C300.406 365.176 300.146 365.275 299.923 365.472C299.704 365.67 299.567 365.925 299.509 366.236H301.864C301.807 365.935 301.669 365.683 301.451 365.48C301.238 365.277 300.988 365.176 300.702 365.176ZM303.379 368.552V364.583H304.158V365.09C304.278 364.898 304.431 364.752 304.619 364.654C304.806 364.55 305.016 364.498 305.25 364.498C305.333 364.498 305.406 364.503 305.468 364.513C305.531 364.524 305.591 364.539 305.648 364.56V365.262C305.575 365.236 305.5 365.215 305.422 365.199C305.344 365.184 305.266 365.176 305.188 365.176C304.959 365.176 304.754 365.238 304.572 365.363C304.395 365.483 304.257 365.662 304.158 365.901V368.552H303.379ZM306.662 363.944C306.532 363.944 306.42 363.897 306.327 363.804C306.233 363.705 306.186 363.591 306.186 363.461C306.186 363.331 306.233 363.219 306.327 363.125C306.42 363.027 306.532 362.977 306.662 362.977C306.792 362.977 306.904 363.027 306.997 363.125C307.096 363.219 307.146 363.331 307.146 363.461C307.146 363.591 307.096 363.705 306.997 363.804C306.904 363.897 306.792 363.944 306.662 363.944ZM307.052 364.583V368.552H306.272V364.583H307.052ZM311.409 368.1C311.18 368.277 310.941 368.409 310.692 368.498C310.442 368.581 310.169 368.622 309.873 368.622C309.582 368.622 309.309 368.57 309.054 368.466C308.799 368.357 308.578 368.212 308.391 368.03C308.204 367.848 308.056 367.632 307.947 367.383C307.843 367.128 307.791 366.855 307.791 366.564C307.791 366.278 307.843 366.01 307.947 365.761C308.051 365.511 308.191 365.296 308.368 365.114C308.545 364.932 308.755 364.789 309 364.685C309.244 364.576 309.504 364.521 309.779 364.521C310.05 364.521 310.302 364.576 310.536 364.685C310.775 364.789 310.977 364.934 311.144 365.121C311.315 365.303 311.45 365.522 311.549 365.776C311.648 366.031 311.697 366.304 311.697 366.595V366.821H308.563C308.615 367.149 308.766 367.422 309.015 367.64C309.265 367.853 309.561 367.96 309.904 367.96C310.096 367.96 310.281 367.928 310.458 367.866C310.634 367.804 310.785 367.718 310.91 367.609L311.409 368.1ZM309.764 365.176C309.467 365.176 309.207 365.275 308.984 365.472C308.766 365.67 308.628 365.925 308.571 366.236H310.925C310.868 365.935 310.731 365.683 310.512 365.48C310.299 365.277 310.05 365.176 309.764 365.176ZM312.44 368.552V364.583H313.22V364.981C313.376 364.825 313.552 364.708 313.75 364.63C313.953 364.547 314.174 364.505 314.413 364.505C314.865 364.505 315.237 364.651 315.528 364.942C315.819 365.228 315.964 365.6 315.964 366.057V368.552H315.185V366.19C315.185 365.878 315.094 365.633 314.912 365.457C314.735 365.275 314.498 365.184 314.202 365.184C313.994 365.184 313.805 365.228 313.633 365.316C313.467 365.405 313.329 365.532 313.22 365.698V368.552H312.44ZM318.759 367.936C318.956 367.936 319.143 367.897 319.32 367.819C319.497 367.736 319.666 367.614 319.827 367.453L320.295 367.96C320.087 368.168 319.848 368.331 319.578 368.451C319.307 368.565 319.024 368.622 318.728 368.622C318.442 368.622 318.174 368.57 317.924 368.466C317.675 368.357 317.459 368.212 317.277 368.03C317.095 367.848 316.95 367.632 316.841 367.383C316.737 367.128 316.685 366.855 316.685 366.564C316.685 366.278 316.737 366.01 316.841 365.761C316.95 365.506 317.095 365.288 317.277 365.106C317.459 364.919 317.675 364.773 317.924 364.669C318.174 364.56 318.442 364.505 318.728 364.505C319.024 364.505 319.312 364.565 319.593 364.685C319.874 364.799 320.118 364.96 320.326 365.168L319.835 365.698C319.684 365.537 319.515 365.415 319.328 365.332C319.141 365.244 318.946 365.199 318.743 365.199C318.385 365.199 318.08 365.332 317.831 365.597C317.581 365.862 317.457 366.184 317.457 366.564C317.457 366.954 317.581 367.281 317.831 367.546C318.086 367.806 318.395 367.936 318.759 367.936ZM324.217 368.1C323.988 368.277 323.749 368.409 323.499 368.498C323.25 368.581 322.977 368.622 322.68 368.622C322.389 368.622 322.116 368.57 321.862 368.466C321.607 368.357 321.386 368.212 321.199 368.03C321.012 367.848 320.864 367.632 320.755 367.383C320.651 367.128 320.599 366.855 320.599 366.564C320.599 366.278 320.651 366.01 320.755 365.761C320.858 365.511 320.999 365.296 321.176 365.114C321.352 364.932 321.563 364.789 321.807 364.685C322.051 364.576 322.311 364.521 322.587 364.521C322.857 364.521 323.109 364.576 323.343 364.685C323.582 364.789 323.785 364.934 323.951 365.121C324.123 365.303 324.258 365.522 324.357 365.776C324.456 366.031 324.505 366.304 324.505 366.595V366.821H321.371C321.422 367.149 321.573 367.422 321.823 367.64C322.072 367.853 322.369 367.96 322.712 367.96C322.904 367.96 323.089 367.928 323.265 367.866C323.442 367.804 323.593 367.718 323.717 367.609L324.217 368.1ZM322.571 365.176C322.275 365.176 322.015 365.275 321.792 365.472C321.573 365.67 321.435 365.925 321.378 366.236H323.733C323.676 365.935 323.538 365.683 323.32 365.48C323.107 365.277 322.857 365.176 322.571 365.176Z" fill="#41475E" fill-opacity="0.54"/>
<circle cx="219.283" cy="364.752" r="3.12004" fill="#5B78FF"/>
<circle cx="275.444" cy="364.752" r="3.12004" fill="#C2CFE0"/>
</g>
<defs>
<filter id="filter0_d_5_2858" x="126.05" y="0.325989" width="271.95" height="359.934" filterUnits="userSpaceOnUse" color-interpolation-filters="sRGB">
<feFlood flood-opacity="0" result="BackgroundImageFix"/>
<feColorMatrix in="SourceAlpha" type="matrix" values="0 0 0 0 0 0 0 0 0 0 0 0 0 0 0 0 0 0 127 0" result="hardAlpha"/>
<feOffset dy="4"/>
<feGaussianBlur stdDeviation="2"/>
<feComposite in2="hardAlpha" operator="out"/>
<feColorMatrix type="matrix" values="0 0 0 0 0 0 0 0 0 0 0 0 0 0 0 0 0 0 0.3 0"/>
<feBlend mode="normal" in2="BackgroundImageFix" result="effect1_dropShadow_5_2858"/>
<feBlend mode="normal" in="SourceGraphic" in2="effect1_dropShadow_5_2858" result="shape"/>
</filter>
<filter id="filter1_d_5_2858" x="-6.10352e-05" y="282.591" width="355.365" height="218.083" filterUnits="userSpaceOnUse" color-interpolation-filters="sRGB">
<feFlood flood-opacity="0" result="BackgroundImageFix"/>
<feColorMatrix in="SourceAlpha" type="matrix" values="0 0 0 0 0 0 0 0 0 0 0 0 0 0 0 0 0 0 127 0" result="hardAlpha"/>
<feOffset dy="4"/>
<feGaussianBlur stdDeviation="2"/>
<feComposite in2="hardAlpha" operator="out"/>
<feColorMatrix type="matrix" values="0 0 0 0 0 0 0 0 0 0 0 0 0 0 0 0 0 0 0.3 0"/>
<feBlend mode="normal" in2="BackgroundImageFix" result="effect1_dropShadow_5_2858"/>
<feBlend mode="normal" in="SourceGraphic" in2="effect1_dropShadow_5_2858" result="shape"/>
</filter>
</defs>
</svg>
